<svg 
	xmlns="http://www.w3.org/2000/svg"
 	id="map" 
 	viewBox="-50 -40 1150 750"
 	preserveAspectRatio="xMidYMid meet"
 	style="stroke-linejoin: round; stroke:#000; fill: none;">



	<!-- 4 OUTER WALLS -->
	<!-- CANT BE FULL GROUPS TO PREVENT CLICKABLITY-->
	<path stroke="black" stroke-width = "5"
		d = "M 0 0 l 1100 0"
	/>
	<path stroke="black" stroke-width = "5"
		d = "M 1100 0 l 0 700"
	/>
	<path stroke="black" stroke-width = "5"
		d = "M 1100 700 l -1100 0"
	/>
	<path stroke="black" stroke-width = "5"
		d = "M 0 700 l 0 -700"
	/>

	<g id="Row 1">
		<path
			id= "R1001"
			data-name= "Room 1001"
			data-id= "R1001"
			style= "stroke-width: 3;"

			d=	"M 0 0, l 100 0, l 0 100, l -100 0, l 0 -100"
		/>

		<path
			id= "R1002"
			data-name= "Room 1002"
			data-id= "R1002"
			style= "stroke-width: 3; "

			d=	"M 100 0, l 100 0, l 0 100, l -100 0, l 0 -100"
		/>

		<path
			id= "R1003"
			data-name= "Room 1003"
			data-id= "R1003"
			style= "stroke-width: 3; fill: none;"

			d=	"M 200 0, l 100 0, l 0 100, l -100 0, l 0 -100"
		/>

		<path
			id= "R1004"
			data-name= "Room 1004"
			data-id= "R1004"
			style= "stroke-width: 3; fill: none;"

			d=	"M 300 0, l 100 0, l 0 100, l -100 0, l 0 -100"
		/>
		
		<path
			id= "R1005"
			data-name= "Room 1005"
			data-id= "R1005"
			style= "stroke-width: 3; fill: none;"

			d=	"M 400 0, l 100 0, l 0 100, l -100 0, l 0 -100"
		/>

		<path
			id= "R1006"
			data-name= "Room 1006"
			data-id= "R1006"
			style= "stroke-width: 3; fill: none;"

			d=	"M 600 0, l 100 0, l 0 100, l -100 0, l 0 -100"
		/>

		<path
			id= "R1007"
			data-name= "Room 1007"
			data-id= "R1007"
			style= "stroke-width: 3; fill: none;"

			d=	"M 700 0, l 100 0, l 0 100, l -100 0, l 0 -100"
		/>

		<path
			id= "R1008"
			data-name= "Room 1008"
			data-id= "R1008"
			style= "stroke-width: 3; fill: none;"

			d=	"M 800 0, l 100 0, l 0 100, l -100 0, l 0 -100"
		/>

		<path
			id= "R1009"
			data-name= "Room 1009"
			data-id= "R1009"
			style= "stroke-width: 3; fill: none;"

			d=	"M 900 0, l 100 0, l 0 100, l -100 0, l 0 -100"
		/>

		<path
			id= "R1010"
			data-name= "Room 1010"
			data-id= "R1010"
			style= "stroke-width: 3; fill: none;"

			d=	"M 1000 0, l 100 0, l 0 100, l -100 0, l 0 -100"
		/>
	</g>

	<g id="Row 2">
		<path
			id= "R1011"
			data-name= "Room 1011"
			data-id= "R1011"
			style= "stroke-width: 3; fill: none;"

			d=	"M 0 200, l 100 0, l 0 100, l -100 0, l 0 -100"
		/>

		<path
			id= "R1012"
			data-name= "Room 1012"
			data-id= "R1012"
			style= "stroke-width: 3; fill: none;"

			d=	"M 100 200, l 100 0, l 0 100, l -100 0, l 0 -100"
		/>

		<path
			id= "R1013"
			data-name= "Room 1013"
			data-id= "R1013"
			style= "stroke-width: 3; fill: none;"

			d=	"M 200 200, l 100 0, l 0 100, l -100 0, l 0 -100"
		/>

		<path
			id= "R1014"
			data-name= "Room 1014"
			data-id= "R1014"
			style= "stroke-width: 3; fill: none;"

			d=	"M 300 200, l 100 0, l 0 100, l -100 0, l 0 -100"
		/>
		
		<path
			id= "R1015"
			data-name= "Room 1015"
			data-id= "R1015"
			style= "stroke-width: 3; fill: none;"

			d=	"M 400 200, l 100 0, l 0 100, l -100 0, l 0 -100"
		/>

		<path
			id= "R1016"
			data-name= "Room 1016"
			data-id= "R1016"
			style= "stroke-width: 3; fill: none;"

			d=	"M 600 200, l 100 0, l 0 100, l -100 0, l 0 -100"
		/>

		<path
			id= "R1017"
			data-name= "Room 1017"
			data-id= "R1017"
			style= "stroke-width: 3; fill: none;"

			d=	"M 700 200, l 100 0, l 0 100, l -100 0, l 0 -100"
		/>

		<path
			id= "R1018"
			data-name= "Room 1018"
			data-id= "R1018"
			style= "stroke-width: 3; fill: none;"

			d=	"M 800 200, l 100 0, l 0 100, l -100 0, l 0 -100"
		/>

		<path
			id= "R1019"
			data-name= "Room 1019"
			data-id= "R1019"
			style= "stroke-width: 3; fill: none;"

			d=	"M 900 200, l 100 0, l 0 100, l -100 0, l 0 -100"
		/>

		<path
			id= "R1020"
			data-name= "Room 1020"
			data-id= "R1020"
			style= "stroke-width: 3; fill: none;"

			d=	"M 1000 200, l 100 0, l 0 100, l -100 0, l 0 -100"
		/>
	</g>

	<g id="Row 3">
		<path
			id= "R1021"
			data-name= "Room 1021"
			data-id= "R1021"
			style= "stroke-width: 3; fill: none;"

			d=	"M 0 400, l 100 0, l 0 100, l -100 0, l 0 -100"
		/>

		<path
			id= "R1022"
			data-name= "Room 1022"
			data-id= "R1022"
			style= "stroke-width: 3; fill: none;"

			d=	"M 100 400, l 100 0, l 0 100, l -100 0, l 0 -100"
		/>

		<path
			id= "R1023"
			data-name= "Room 1023"
			data-id= "R1023"
			style= "stroke-width: 3; fill: none;"

			d=	"M 200 400, l 100 0, l 0 100, l -100 0, l 0 -100"
		/>

		<path
			id= "R1024"
			data-name= "Room 1024"
			data-id= "R1024"
			style= "stroke-width: 3; fill: none;"

			d=	"M 300 400, l 100 0, l 0 100, l -100 0, l 0 -100"
		/>
		
		<path
			id= "R1025"
			data-name= "Room 1025"
			data-id= "R1025"
			style= "stroke-width: 3; fill: none;"

			d=	"M 400 400, l 100 0, l 0 100, l -100 0, l 0 -100"
		/>

		<path
			id= "R1026"
			data-name= "Room 1026"
			data-id= "R1026"
			style= "stroke-width: 3; fill: none;"

			d=	"M 600 400, l 100 0, l 0 100, l -100 0, l 0 -100"
		/>

		<path
			id= "R1027"
			data-name= "Room 1027"
			data-id= "R1027"
			style= "stroke-width: 3; fill: none;"

			d=	"M 700 400, l 100 0, l 0 100, l -100 0, l 0 -100"
		/>

		<path
			id= "R1028"
			data-name= "Room 1028"
			data-id= "R1028"
			style= "stroke-width: 3; fill: none;"

			d=	"M 800 400, l 100 0, l 0 100, l -100 0, l 0 -100"
		/>

		<path
			id= "R1029"
			data-name= "Room 1029"
			data-id= "R1029"
			style= "stroke-width: 3; fill: none;"

			d=	"M 900 400, l 100 0, l 0 100, l -100 0, l 0 -100"
		/>

		<path
			id= "R1030"
			data-name= "Room 1030"
			data-id= "R1030"
			style= "stroke-width: 3; fill: none;"

			d=	"M 1000 400, l 100 0, l 0 100, l -100 0, l 0 -100"
		/>
	</g>

	<g id="Row 4">
		<path
			id= "R1031"
			data-name= "Room 1031"
			data-id= "R1031"
			style= "stroke-width: 3; fill: none;"

			d=	"M 0 600, l 100 0, l 0 100, l -100 0, l 0 -100"
		/>

		<path
			id= "R1032"
			data-name= "Room 1032"
			data-id= "R1032"
			style= "stroke-width: 3; fill: none;"

			d=	"M 100 600, l 100 0, l 0 100, l -100 0, l 0 -100"
		/>

		<path
			id= "R1033"
			data-name= "Room 1033"
			data-id= "R1033"
			style= "stroke-width: 3; fill: none;"

			d=	"M 200 600, l 100 0, l 0 100, l -100 0, l 0 -100"
		/>

		<path
			id= "R1034"
			data-name= "Room 1034"
			data-id= "R1034"
			style= "stroke-width: 3; fill: none;"

			d=	"M 300 600, l 100 0, l 0 100, l -100 0, l 0 -100"
		/>
		
		<path
			id= "R1035"
			data-name= "Room 1035"
			data-id= "R1035"
			style= "stroke-width: 3; fill: none;"

			d=	"M 400 600, l 100 0, l 0 100, l -100 0, l 0 -100"
		/>

		<path
			id= "R1036"
			data-name= "Room 1036"
			data-id= "R1036"
			style= "stroke-width: 3; fill: none;"

			d=	"M 600 600, l 100 0, l 0 100, l -100 0, l 0 -100"
		/>

		<path
			id= "R1037"
			data-name= "Room 1037"
			data-id= "R1037"
			style= "stroke-width: 3; fill: none;"

			d=	"M 700 600, l 100 0, l 0 100, l -100 0, l 0 -100"
		/>

		<path
			id= "R1038"
			data-name= "Room 1038"
			data-id= "R1038"
			style= "stroke-width: 3; fill: none;"

			d=	"M 800 600, l 100 0, l 0 100, l -100 0, l 0 -100"
		/>

		<path
			id= "R1039"
			data-name= "Room 1039"
			data-id= "R1039"
			style= "stroke-width: 3; fill: none;"

			d=	"M 900 600, l 100 0, l 0 100, l -100 0, l 0 -100"
		/>

		<path
			id= "R1040"
			data-name= "Room 1040"
			data-id= "R1040"
			style= "stroke-width: 3; fill: none;"

			d=	"M 1000 600, l 100 0, l 0 100, l -100 0, l 0 -100"
		/>
	</g>

</svg>