<?xml version="1.0" standalone="no"?>
<!DOCTYPE svg PUBLIC "-//W3C//DTD SVG 20010904//EN"
 "http://www.w3.org/TR/2001/REC-SVG-20010904/DTD/svg10.dtd">
<svg version="1.0" xmlns="http://www.w3.org/2000/svg"
 width="1181.000000pt" height="496.000000pt" viewBox="0 0 1181.000000 496.000000"
 preserveAspectRatio="xMidYMid meet" style="background:black">
<metadata>
Created by potrace 1.15, written by Peter Selinger 2001-2017
</metadata>

<g transform="translate(0.000000,496.000000) scale(0.100000,-0.100000)"
 stroke="black">
 
<path fill="white" d="M0 2480 l0 -2480 5905 0 5905 0 0 2480 0 2480 -5905 0 -5905 0 0
-2480z m2240 1920 c354 -23 757 -71 1085 -130 175 -32 308 -61 303 -66 -2 -1
-109 10 -238 26 -541 66 -1146 116 -1289 107 -42 -3 -137 -17 -211 -31 -157
-31 -454 -70 -655 -86 -194 -15 -673 -23 -770 -13 -76 8 -71 9 110 16 615 24
1193 93 1435 171 58 18 39 18 230 6z m7596 -20 c291 -75 726 -126 1309 -154
l270 -12 -120 -9 c-134 -9 -527 -1 -735 15 -264 21 -463 48 -807 112 -108 20
-612 -16 -1228 -88 -165 -19 -316 -37 -335 -41 -19 -3 -32 -3 -29 1 11 11 391
83 614 115 278 41 663 78 912 90 17 0 85 -13 149 -29z m-3947 -205 c131 -34
278 -112 342 -181 32 -35 79 -109 79 -125 0 -7 -13 6 -28 27 -73 100 -215 186
-365 220 -77 18 -80 18 -115 -1 -20 -11 -38 -29 -40 -40 -10 -70 -13 -71 -33
-15 -10 30 -20 60 -22 65 -2 10 97 65 116 65 5 0 35 -7 66 -15z m5591 -58
c-134 -129 -381 -220 -695 -257 -231 -27 -657 -22 -926 11 -111 14 -166 -1
-274 -73 -138 -94 -124 -90 -270 -85 -95 2 -152 10 -211 26 l-82 23 -59 -31
c-112 -56 -165 -65 -418 -67 -260 -3 -316 -8 -399 -35 -71 -24 -83 -19 -23 10
73 36 188 52 387 57 198 4 272 14 356 45 98 37 199 136 162 161 -44 29 -100
52 -172 68 l-81 18 55 1 c95 2 262 -57 277 -96 3 -7 -5 -29 -17 -49 -17 -30
-18 -39 -8 -46 34 -22 104 -32 223 -33 l131 0 43 37 c49 42 157 101 234 127
51 18 57 18 212 -1 233 -27 638 -35 826 -15 325 35 575 113 732 228 29 21 54
38 57 38 3 0 -24 -28 -60 -62z m-11163 19 c157 -111 405 -188 718 -222 192
-21 594 -14 830 14 l160 20 70 -25 c82 -29 149 -66 225 -123 l55 -42 125 5
c76 3 145 11 177 21 l51 16 -25 46 c-25 44 -25 46 -7 60 61 49 193 88 277 82
40 -3 39 -4 -28 -16 -80 -15 -156 -46 -180 -72 -15 -16 -14 -20 12 -51 41 -49
62 -66 121 -95 83 -40 171 -53 383 -58 203 -5 303 -19 387 -56 55 -25 51 -36
-6 -16 -84 30 -169 38 -368 37 -245 -1 -346 13 -451 65 l-73 35 -105 -26 c-91
-23 -122 -26 -223 -23 l-118 3 -62 47 c-35 26 -93 62 -130 80 -76 37 -107 39
-302 19 -189 -19 -510 -25 -680 -12 -370 28 -603 93 -775 216 -58 42 -126 105
-112 105 4 0 28 -15 54 -34z m3463 24 c270 -19 535 -59 795 -122 153 -36 175
-50 269 -172 108 -139 180 -271 239 -441 36 -105 71 -247 65 -265 -2 -6 -23
40 -48 102 -119 303 -308 606 -423 677 -61 37 -343 105 -605 146 -246 38 -445
56 -727 63 -169 5 -235 9 -190 13 122 10 475 9 625 -1z m4850 0 c63 -6 49 -7
-85 -8 -435 -5 -850 -55 -1222 -147 -144 -36 -180 -49 -220 -78 -125 -92 -287
-357 -423 -692 -34 -85 -40 -93 -35 -55 9 68 54 225 92 320 71 177 177 342
287 448 l61 59 130 31 c252 60 536 104 775 121 142 10 539 11 640 1z m-7918
-89 c57 -11 155 -25 218 -32 162 -19 696 -16 915 4 319 30 304 30 195 2 -203
-53 -352 -69 -645 -69 -229 0 -292 3 -412 22 -152 24 -360 73 -390 92 -16 10
-16 11 -1 6 10 -3 64 -14 120 -25z m4980 -45 c21 -72 23 -75 64 -91 23 -9 49
-24 58 -34 17 -18 16 -19 -26 -6 -24 8 -56 17 -72 22 -21 6 -31 18 -41 46 -7
22 -24 50 -37 64 -21 24 -28 25 -94 20 -115 -8 -191 -59 -201 -135 -7 -53 12
-106 56 -155 21 -24 28 -36 16 -29 -32 17 -81 74 -95 111 -22 54 -19 135 5
161 54 60 159 98 272 99 l73 1 22 -74z m5506 64 c-26 -16 -193 -57 -313 -79
-355 -63 -806 -50 -1135 33 -113 28 -99 30 80 11 260 -28 622 -40 848 -27 209
12 376 32 467 57 61 16 75 17 53 5z m-2623 -36 c-5 -2 -66 -19 -135 -39 -428
-121 -713 -301 -820 -517 -27 -55 -43 -103 -47 -139 -5 -55 -5 -56 23 -63 41
-10 162 -64 201 -90 27 -17 33 -27 33 -56 0 -107 -54 -275 -103 -317 -20 -17
-20 -17 -12 2 4 11 17 43 28 70 13 34 20 76 21 130 2 126 0 130 -107 180 -51
23 -109 48 -131 55 l-39 12 6 67 c24 286 322 529 801 652 132 34 324 70 281
53z m-5117 -44 c416 -102 680 -267 793 -495 32 -65 41 -95 46 -155 l5 -75
-114 -47 c-160 -67 -152 -59 -156 -170 -3 -80 0 -106 21 -169 14 -40 24 -75
23 -77 -7 -6 -59 80 -76 125 -28 74 -46 219 -29 239 16 19 113 69 194 99 58
22 60 24 57 56 -9 102 -69 216 -161 309 -150 151 -362 262 -691 362 -145 44
-96 43 88 -2z m2564 21 c11 -11 7 -12 -22 -7 -65 11 -67 -7 -7 -58 30 -26 64
-61 76 -77 l22 -30 -60 31 c-73 36 -104 38 -136 5 -23 -22 -25 -22 -25 -5 0
26 -30 100 -41 100 -13 0 -31 39 -23 51 10 16 200 8 216 -10z m-2172 -48 c63
-18 167 -59 230 -90 100 -50 126 -68 201 -142 135 -135 176 -239 166 -421 -4
-77 -32 -200 -42 -188 -1 2 2 37 7 78 18 144 -27 306 -120 433 -101 136 -287
255 -537 342 -122 43 -64 36 95 -12z m4193 13 c-397 -130 -639 -368 -660 -646
-10 -125 -41 -113 -42 15 -3 258 182 472 509 589 87 32 246 75 275 75 11 0
-26 -15 -82 -33z m-7725 -156 c123 -73 299 -127 527 -161 182 -28 537 -36 771
-18 98 8 202 14 229 14 54 -1 124 -30 247 -104 81 -50 150 -59 313 -42 150 16
150 16 125 48 -15 20 -17 29 -9 39 22 26 115 64 186 74 92 14 126 8 53 -9 -73
-18 -160 -59 -160 -76 0 -7 21 -32 48 -55 107 -95 222 -127 507 -140 187 -9
286 -24 336 -50 33 -18 21 -19 -28 -2 -38 12 -103 16 -298 18 -210 3 -262 6
-327 23 -76 20 -158 56 -211 93 -23 16 -33 18 -57 9 -55 -19 -234 -34 -338
-28 -98 6 -106 8 -158 42 -30 20 -88 52 -129 71 l-73 34 -99 -10 c-54 -5 -190
-12 -303 -16 -510 -16 -927 58 -1162 209 -64 40 -142 117 -165 161 -14 27 -8
23 46 -26 34 -32 92 -76 129 -98z m11319 102 c-108 -164 -408 -287 -812 -334
-132 -15 -631 -15 -790 0 l-110 11 -72 -30 c-39 -17 -98 -49 -130 -72 l-58
-42 -170 1 c-124 0 -188 5 -237 17 l-68 17 -44 -30 c-52 -35 -148 -73 -228
-89 -31 -7 -163 -13 -295 -15 -180 -2 -251 -6 -291 -18 -29 -8 -49 -11 -44 -6
28 28 153 49 347 58 296 14 424 52 525 155 l43 44 -34 21 c-19 11 -59 27 -89
36 -30 8 -66 19 -80 24 l-25 8 25 1 c85 3 231 -41 266 -80 16 -18 16 -20 -5
-43 -21 -23 -22 -24 -4 -30 45 -13 245 -28 308 -22 57 5 82 14 135 46 36 21
100 55 142 75 l77 37 133 -14 c172 -17 699 -17 828 0 341 46 574 131 713 262
34 32 64 56 66 54 2 -2 -8 -21 -22 -42z m-11131 -92 c185 -44 400 -68 709 -79
205 -8 665 0 770 13 l40 5 -41 -13 c-90 -30 -422 -66 -615 -66 -142 0 -347 17
-499 41 -146 23 -375 79 -445 109 -52 22 -49 21 81 -10z m10904 25 c0 -8 -190
-64 -304 -90 -400 -89 -891 -97 -1258 -20 -82 18 -105 30 -38 21 101 -15 550
-23 771 -15 322 11 627 50 784 98 36 11 45 12 45 6z m-8470 -51 c89 -31 203
-53 310 -61 50 -3 90 -9 90 -13 0 -5 -31 -11 -69 -15 -118 -12 -279 22 -377
80 -46 27 -73 55 -38 40 10 -5 48 -18 84 -31z m2730 -21 c58 -28 126 -58 153
-68 26 -10 47 -21 47 -25 0 -13 -59 -30 -101 -30 -51 0 -85 14 -130 55 -48 43
-95 68 -118 60 -9 -3 -27 -22 -38 -42 l-22 -38 -10 28 c-12 32 -14 77 -5 102
13 33 106 15 224 -42z m3275 41 c-61 -47 -174 -90 -278 -105 -72 -10 -217 -3
-217 11 0 4 42 10 93 13 112 8 250 37 337 70 76 30 93 32 65 11z m-2638 -52
c-12 -13 -13 -22 -5 -36 38 -68 47 -195 24 -336 -17 -99 -8 -159 30 -215 32
-48 30 -55 -7 -19 -48 45 -69 93 -62 143 5 33 0 53 -20 94 -14 29 -28 63 -32
77 -5 22 -4 21 11 -5 9 -16 23 -41 32 -55 l16 -25 7 40 c14 80 -15 225 -61
303 -11 18 -20 37 -20 43 0 5 23 9 52 9 48 0 50 -1 35 -18z m-2442 -31 c15 -6
9 -10 -29 -15 l-49 -8 6 -85 c7 -117 51 -206 142 -292 70 -65 67 -79 -6 -33
-59 38 -116 103 -144 166 -26 56 -55 185 -55 241 l0 35 58 -1 c31 0 66 -4 77
-8z m4195 -38 c-1 -169 -91 -342 -210 -403 -58 -30 -70 -20 -19 15 86 60 164
203 170 310 4 91 4 93 -48 101 -62 9 -33 22 50 23 l57 1 0 -47z m-7590 -215
c225 -125 638 -155 1096 -82 94 15 105 15 158 0 81 -24 149 -55 231 -107 l70
-44 190 0 c149 0 207 4 269 18 l78 19 -28 29 c-34 35 -28 52 32 86 56 32 75
29 36 -6 -17 -17 -32 -34 -32 -39 0 -14 97 -86 155 -115 115 -57 175 -69 380
-71 266 -3 279 -20 17 -24 -229 -3 -310 10 -442 70 -65 29 -65 29 -125 14
-118 -30 -183 -38 -360 -43 l-180 -5 -68 50 c-37 28 -102 65 -145 83 -92 40
-140 42 -322 16 -380 -54 -737 -23 -956 83 -89 43 -193 131 -228 192 -16 28
-9 24 45 -28 35 -33 93 -77 129 -96z m11024 120 c-31 -61 -119 -135 -217 -183
-244 -120 -554 -144 -1039 -79 l-126 17 -76 -27 c-72 -25 -150 -67 -225 -121
-32 -24 -42 -25 -165 -25 -150 0 -263 12 -388 41 l-86 20 -53 -26 c-29 -15
-95 -38 -148 -51 -88 -23 -111 -24 -302 -22 -259 4 -251 20 11 23 204 3 269
14 375 67 74 37 165 104 165 122 0 8 -14 26 -31 40 -17 14 -26 26 -19 26 13 0
77 -34 104 -55 19 -15 19 -16 -13 -49 l-33 -34 74 -18 c51 -12 127 -18 258
-21 184 -4 185 -4 230 21 106 61 220 116 274 131 55 16 64 16 199 -3 213 -31
242 -33 429 -33 376 -1 617 68 761 216 29 29 53 54 55 54 1 1 -5 -14 -14 -31z
m-10761 -99 c209 -35 552 -36 866 -3 l46 4 -39 -15 c-21 -8 -89 -25 -150 -37
-96 -20 -141 -23 -336 -23 -211 1 -233 2 -345 29 -110 25 -288 87 -309 107 -5
4 26 -3 68 -17 43 -13 132 -33 199 -45z m4971 -26 c8 -8 74 36 91 60 8 12 15
17 15 11 0 -18 -58 -92 -85 -110 -29 -19 -35 -15 -51 29 l-12 32 -56 -58 c-52
-55 -56 -62 -56 -108 0 -27 2 -49 5 -49 3 0 26 19 52 43 33 30 43 35 33 18
-16 -30 -90 -111 -101 -111 -5 0 -9 26 -9 58 l0 57 -20 -25 c-11 -14 -38 -60
-60 -102 -23 -43 -43 -78 -45 -78 -7 0 32 105 60 160 41 82 82 138 149 207
l61 62 12 -45 c6 -25 14 -48 17 -51z m5621 88 c-19 -32 -294 -112 -448 -131
-202 -26 -529 0 -687 54 l-45 16 55 -5 c482 -44 846 -26 1070 54 30 11 56 20
58 20 2 1 1 -3 -3 -8z m-8457 -67 c53 -13 150 -30 215 -36 70 -7 111 -15 100
-19 -35 -14 -215 -9 -282 7 -79 19 -180 65 -206 94 l-18 20 47 -21 c26 -11 91
-31 144 -45z m3009 -26 c15 -16 33 -28 40 -28 23 0 63 31 88 67 l23 35 12 -36
c15 -47 57 -96 80 -96 11 0 37 17 60 38 22 22 40 35 40 30 0 -18 -29 -64 -59
-92 -27 -26 -33 -28 -54 -17 -28 15 -77 87 -77 113 0 10 -4 18 -10 18 -5 0
-10 -6 -10 -13 0 -21 -70 -97 -89 -97 -37 0 -102 97 -101 152 1 19 4 17 16
-12 8 -19 27 -47 41 -62z m3183 46 c-83 -52 -167 -76 -295 -81 -60 -3 -126 -1
-145 4 -31 9 -26 10 55 17 146 12 339 54 393 86 9 5 24 9 32 9 8 0 -10 -15
-40 -35z m-5385 -30 c-22 -8 -43 -18 -47 -22 -13 -13 12 -107 47 -179 40 -80
111 -153 189 -192 26 -12 46 -25 43 -27 -9 -9 -106 28 -150 57 -80 52 -148
165 -182 298 -20 77 -17 81 75 80 l65 0 -40 -15z m4544 7 c21 -13 -1 -104 -46
-200 -57 -119 -155 -204 -263 -226 -32 -6 -29 -3 25 30 118 72 189 162 220
280 23 89 21 92 -32 109 l-48 15 65 0 c36 0 71 -3 79 -8z m-2529 -157 c12 -25
33 -52 46 -60 22 -15 26 -14 58 5 19 12 41 33 50 46 20 31 32 32 40 2 3 -13
20 -40 39 -62 l34 -39 34 21 c19 12 45 36 58 53 l23 32 19 -41 c10 -22 30 -53
44 -67 25 -25 27 -25 53 -9 15 9 42 33 59 53 l33 37 -13 -35 c-6 -19 -31 -54
-55 -79 l-42 -45 -35 34 c-19 19 -42 54 -52 78 l-17 44 -17 -35 c-10 -19 -32
-46 -49 -61 -25 -21 -35 -24 -51 -16 -26 15 -67 78 -75 118 l-7 33 -17 -38
c-16 -35 -71 -93 -89 -93 -13 0 -70 64 -79 90 -13 36 -23 80 -18 80 2 0 14
-20 26 -46z m-2940 -25 c99 -35 286 -69 383 -69 31 0 38 -3 27 -10 -23 -15
-218 -11 -289 5 -71 17 -183 68 -203 93 -11 14 -10 15 7 8 11 -4 45 -17 75
-27z m6341 -4 c-87 -55 -161 -77 -288 -82 -61 -3 -129 -2 -150 2 -32 7 -19 10
87 21 127 14 300 53 348 79 53 29 56 14 3 -20z m-8457 -95 c125 -59 201 -73
401 -74 189 -1 314 16 480 65 99 30 188 10 268 -60 31 -28 47 -33 127 -43 84
-10 252 0 318 18 9 2 1 -3 -18 -12 -68 -31 -170 -46 -295 -42 -120 4 -120 4
-179 42 -32 21 -78 45 -102 53 -38 13 -49 13 -96 -1 -103 -29 -261 -57 -381
-66 -279 -21 -506 38 -640 168 -62 59 -64 78 -3 28 30 -24 84 -58 120 -76z
m10656 64 c-126 -131 -292 -186 -550 -186 -157 0 -287 17 -439 57 -111 30
-132 26 -236 -37 l-70 -43 -118 -3 c-95 -3 -136 0 -210 17 -51 12 -99 26 -107
32 -12 8 -9 9 10 5 84 -20 223 -28 309 -18 83 10 96 14 133 47 25 21 69 44
109 57 l67 21 129 -31 c203 -51 318 -65 478 -59 208 8 379 61 480 151 58 51
67 44 15 -10z m-10625 -3 c107 -34 230 -44 437 -38 106 3 236 13 288 21 52 8
96 13 98 11 6 -6 -117 -42 -202 -60 -117 -24 -242 -29 -352 -15 -108 13 -245
50 -302 80 -46 24 -42 24 33 1z m10484 -6 c-106 -55 -322 -91 -480 -81 -101 7
-280 44 -339 70 -45 20 -40 19 78 -1 145 -25 547 -25 657 1 44 10 87 22 95 27
8 5 20 8 25 8 6 0 -11 -11 -36 -24z m-7602 -60 c-20 -14 -37 -31 -37 -38 0
-22 55 -102 101 -147 54 -52 168 -108 237 -117 70 -8 66 -23 -6 -23 -105 0
-197 43 -287 134 -46 47 -115 140 -115 156 0 9 110 60 130 60 8 0 -2 -11 -23
-25z m4761 -7 c23 -11 42 -24 42 -30 0 -22 -75 -120 -130 -172 -84 -77 -153
-108 -253 -114 -86 -5 -103 10 -24 21 71 10 148 43 208 91 55 43 129 140 129
169 0 9 -15 27 -32 42 -31 25 -31 26 -8 20 14 -4 44 -16 68 -27z m-5691 -26
c-26 -27 -27 -29 -10 -44 33 -29 104 -59 172 -74 45 -9 145 -14 321 -15 290
-2 269 -13 -45 -24 -266 -10 -383 9 -486 80 -56 39 -55 50 4 79 66 33 77 33
44 -2z m6603 4 c25 -12 45 -29 45 -37 0 -22 -91 -77 -169 -102 -66 -20 -88
-22 -301 -20 -126 1 -259 6 -295 11 -52 8 -13 10 190 11 267 1 341 10 430 49
25 11 54 27 65 35 20 15 20 16 -9 46 -36 37 -20 40 44 7z m-1810 -31 c7 -8 15
-35 17 -59 4 -33 11 -46 29 -54 21 -10 22 -15 19 -89 -3 -43 -9 -107 -14 -143
l-10 -65 1 85 c2 173 0 190 -22 190 -17 0 -20 7 -20 43 0 24 -6 51 -13 61 -12
16 -15 15 -50 -18 -42 -39 -43 -43 -22 -66 12 -13 13 -22 3 -47 -10 -26 -9
-35 5 -57 9 -14 17 -42 17 -63 0 -21 7 -47 15 -57 8 -11 15 -34 15 -52 0 -28
3 -31 26 -26 28 5 74 -30 74 -57 0 -10 9 -6 29 13 36 35 61 29 61 -14 0 -17 6
-43 14 -58 19 -37 5 -135 -33 -237 -35 -93 -39 -89 -12 10 23 87 36 221 21
230 -5 3 -10 17 -10 31 0 28 -25 33 -38 7 -4 -10 -7 -43 -5 -73 7 -120 6 -147
-11 -190 -10 -25 -21 -49 -26 -54 -9 -9 -3 19 23 107 8 29 8 47 -2 72 -6 18
-9 44 -6 57 4 16 -1 31 -14 47 -12 13 -21 35 -21 48 0 19 -5 23 -30 23 -29 0
-30 -1 -30 -47 0 -34 -6 -53 -22 -70 -18 -20 -20 -28 -11 -56 5 -18 6 -41 2
-52 -13 -34 -10 -100 7 -125 l16 -25 -21 24 c-12 13 -24 40 -27 61 -3 20 -16
50 -29 66 l-23 29 -21 -25 c-26 -31 -26 -42 -1 -65 11 -10 20 -26 20 -36 0
-10 18 -36 40 -58 24 -23 40 -49 40 -63 0 -18 2 -20 10 -8 5 8 10 25 10 37 0
26 33 47 60 38 31 -10 64 -91 66 -165 1 -36 -2 -72 -7 -80 -6 -11 -9 -7 -9 15
-1 17 -5 39 -9 50 -5 11 -4 31 1 45 7 20 5 28 -10 41 -11 8 -22 24 -24 35 -6
32 -35 29 -43 -4 -3 -17 -15 -38 -25 -47 -21 -19 -20 -47 3 -93 8 -17 8 -31
-1 -54 -9 -24 -8 -35 3 -51 13 -18 14 -17 26 24 6 24 15 80 18 124 l7 80 8
-58 c5 -32 6 -76 2 -97 -5 -31 -3 -40 8 -40 8 0 18 5 21 10 4 6 11 8 16 5 5
-4 18 14 29 39 10 25 24 46 30 46 16 0 12 56 -5 70 -8 7 -15 19 -15 26 0 10 6
8 20 -6 24 -24 68 -36 82 -22 14 14 3 29 -40 52 -40 21 -29 27 14 8 23 -11 28
-10 41 7 7 11 13 34 11 50 -4 40 -48 48 -72 13 -12 -17 -16 -19 -16 -6 0 16
44 58 61 58 5 0 18 -9 30 -21 22 -22 22 -32 1 -128 -11 -48 -26 -63 -59 -58
-34 6 -31 -36 3 -52 25 -11 25 -13 19 -79 -7 -60 -14 -80 -50 -142 -18 -30
-37 -50 -48 -50 -5 0 -3 8 6 18 10 10 17 24 17 31 0 7 11 26 24 42 21 25 24
38 23 91 -2 56 -4 63 -23 66 -17 2 -25 -6 -37 -37 -13 -32 -24 -42 -49 -49
-21 -5 -38 -18 -46 -35 -8 -16 -21 -27 -33 -27 -15 0 -19 -7 -19 -37 0 -21 -9
-51 -20 -68 -23 -35 -26 -55 -7 -55 13 0 127 129 160 181 30 47 31 33 1 -21
-15 -27 -50 -78 -79 -113 -28 -34 -54 -76 -58 -92 -4 -17 -10 -41 -13 -54 l-7
-24 32 24 c44 32 65 18 69 -46 2 -37 -2 -55 -17 -76 -12 -16 -21 -33 -21 -40
0 -11 -21 -39 -80 -109 -14 -16 -38 -32 -55 -36 l-30 -6 32 21 c18 11 43 37
56 58 13 21 32 44 41 52 9 7 16 20 16 28 0 8 9 26 20 40 25 32 27 93 3 93 -20
0 -53 -28 -53 -46 0 -8 -9 -28 -20 -46 -11 -18 -20 -39 -20 -47 0 -12 -145
-161 -157 -161 -12 0 33 58 83 107 36 34 54 60 54 76 0 13 9 34 20 47 23 26
23 30 11 64 -7 16 -6 35 2 56 10 25 9 33 -3 40 -23 15 -29 12 -59 -20 -15 -17
-41 -34 -57 -39 -23 -6 -30 -15 -37 -46 -4 -22 -20 -52 -35 -68 -24 -25 -26
-35 -25 -90 l2 -62 -12 44 -12 44 -13 -28 c-19 -42 -25 -24 -6 20 8 21 24 79
35 129 11 50 23 93 26 96 5 5 -4 -88 -13 -125 -5 -18 -3 -18 15 4 12 13 21 34
21 46 0 13 7 31 16 40 35 34 -15 133 -54 108 -9 -5 -20 -27 -23 -49 -4 -24
-16 -46 -33 -59 -24 -19 -27 -27 -21 -58 5 -26 2 -44 -11 -66 -15 -25 -16 -36
-6 -67 16 -54 3 -63 -19 -14 -18 39 -18 44 -3 76 11 24 14 47 10 74 -6 36 -3
41 24 62 24 17 30 29 30 59 0 21 7 42 16 50 12 10 14 24 9 69 -6 54 -5 58 21
79 14 11 33 21 40 21 16 0 22 45 10 91 -8 29 -5 44 12 79 16 32 18 48 11 67
-13 34 -2 70 29 94 22 17 24 23 14 37 -38 55 -43 71 -28 100 12 23 12 30 0 47
-27 37 -9 104 29 105 7 1 2 6 -11 13 -33 19 -55 56 -54 91 1 22 -8 40 -30 63
-28 28 -29 35 -23 75 5 23 8 59 9 78 1 27 7 37 29 48 33 16 55 10 93 -25 l28
-26 9 34 c6 25 5 40 -7 60 -23 39 -21 45 27 89 45 43 67 49 87 25z m-1398 -24
c246 -63 459 -85 758 -79 226 5 231 -3 15 -23 -176 -16 -498 -6 -680 21 -77
12 -156 24 -176 27 -20 3 -79 -2 -131 -11 -191 -32 -370 -47 -623 -53 -143 -2
-278 -1 -300 4 -31 7 3 11 150 15 105 4 255 14 335 23 159 18 412 66 475 89
54 20 48 20 177 -13z m-1435 -43 c-3 -35 -8 -71 -12 -82 -8 -17 -6 -17 23 -2
46 24 60 21 55 -11 -10 -63 -27 -131 -44 -170 -17 -40 -17 -41 3 -46 19 -5 20
-11 13 -83 -8 -92 -37 -198 -70 -265 -14 -27 -27 -49 -28 -49 -2 0 12 44 30
98 35 106 51 227 33 252 -9 13 -16 9 -48 -25 -59 -64 -79 -74 -37 -20 21 28
51 77 66 109 30 64 56 162 46 172 -11 12 -61 -16 -109 -60 -61 -56 -62 -43 -2
23 49 54 68 100 58 143 l-6 28 -39 -20 c-21 -11 -51 -38 -65 -60 -37 -56 -44
-41 -8 17 31 49 104 113 131 113 13 0 15 -10 10 -62z m-3778 -12 c20 -24 144
-74 223 -90 102 -21 293 -20 427 1 143 23 167 21 258 -22 l78 -38 103 12 c162
19 305 58 527 146 46 18 -33 -34 -110 -73 -93 -46 -238 -93 -375 -121 -146
-30 -160 -30 -216 6 -98 63 -112 66 -232 46 -131 -21 -371 -23 -457 -4 -108
24 -192 69 -236 125 -21 26 -11 38 10 12z m8886 -96 c61 -15 160 -34 219 -41
l108 -13 46 26 c26 14 71 33 99 42 50 17 57 16 135 -1 63 -13 129 -18 273 -18
171 0 197 2 265 23 72 23 103 37 165 78 l28 18 -12 -21 c-24 -46 -118 -100
-222 -129 -89 -25 -334 -25 -480 0 l-106 18 -59 -31 c-32 -16 -72 -39 -87 -49
-26 -18 -33 -18 -115 -5 -219 34 -466 120 -552 191 -19 16 0 11 80 -19 58 -23
155 -53 215 -69z m-5310 9 c31 -49 55 -132 55 -192 0 -45 1 -48 17 -36 9 8 34
41 55 73 21 33 38 55 38 51 0 -11 -66 -125 -91 -156 -20 -25 -20 -28 -5 -79 9
-30 16 -90 17 -134 l1 -81 33 70 c19 39 34 67 35 63 0 -14 -50 -139 -65 -161
-25 -35 -19 -46 19 -40 28 4 37 1 47 -15 10 -15 20 -20 36 -16 19 5 23 1 30
-33 4 -21 8 -87 8 -148 -1 -92 -5 -122 -26 -181 l-26 -71 24 5 c17 3 33 -4 53
-23 25 -24 29 -25 38 -10 8 15 11 14 29 -11 58 -82 104 -208 102 -283 -1 -44
-1 -44 -15 24 -17 81 -72 198 -95 203 -21 4 -63 -89 -62 -138 0 -19 11 -66 25
-105 14 -38 28 -88 31 -110 5 -27 -3 -14 -21 40 -36 102 -74 172 -120 219 -39
41 -90 71 -100 61 -4 -4 -7 -41 -7 -84 0 -68 4 -85 33 -143 19 -36 49 -81 68
-99 61 -60 35 -54 -30 7 -35 32 -87 79 -115 103 -29 24 -50 46 -47 48 3 3 24
-11 47 -31 23 -20 44 -35 45 -33 2 1 -4 23 -14 49 -13 38 -24 50 -59 67 -24
12 -53 21 -63 21 -17 0 -19 -5 -14 -27 22 -92 76 -164 172 -229 77 -51 72 -58
-7 -13 -105 60 -178 153 -207 262 -10 39 -10 47 2 47 11 0 11 5 2 25 -14 32 2
71 36 86 l24 11 -44 55 c-55 67 -78 113 -93 181 -13 63 -14 92 -2 111 13 20
124 -34 180 -87 l43 -41 -4 64 c-4 73 7 67 17 -8 8 -55 16 -52 38 14 14 42 13
51 -2 96 -19 57 -47 103 -61 103 -17 0 -39 -56 -48 -121 l-10 -64 -1 81 c-1
67 3 88 24 130 13 27 29 81 34 119 l8 70 2 -81 c1 -69 5 -88 31 -135 16 -30
32 -74 36 -98 l7 -43 33 63 c40 74 41 85 13 99 -16 9 -26 8 -46 -5 -13 -9 -26
-15 -28 -13 -2 2 1 39 7 82 11 81 3 168 -21 230 -11 27 -12 28 -30 12 -38 -35
-64 -116 -70 -221 -5 -87 -7 -94 -14 -57 -4 23 -19 77 -33 118 -28 84 -27 113
2 38 l18 -47 12 54 c9 38 9 60 2 74 -13 25 -59 75 -69 75 -14 0 -31 -114 -25
-168 4 -30 15 -79 25 -110 26 -76 18 -79 -15 -6 -35 78 -44 205 -20 287 17 60
25 67 46 42 12 -14 15 -13 35 5 12 11 31 20 43 20 21 0 22 3 18 53 -5 48 -5
49 5 17 6 -19 15 -52 20 -72 7 -28 14 -36 29 -35 17 1 20 9 20 43 0 77 -59
224 -90 224 -15 0 -30 -70 -31 -140 0 -54 -2 -61 -11 -40 -13 33 -5 187 12
223 13 26 14 27 33 10 11 -10 30 -34 42 -54z m-1686 -4 l-20 -34 37 -16 c126
-52 311 -64 478 -31 44 9 81 14 83 12 2 -2 -36 -13 -84 -26 -120 -30 -282 -37
-391 -17 -95 18 -197 61 -187 78 6 9 94 69 102 69 1 0 -7 -16 -18 -35z m6449
6 c22 -16 43 -34 46 -40 10 -15 -29 -36 -114 -63 -108 -33 -323 -33 -458 1
-51 13 -92 25 -89 27 2 2 37 -2 78 -10 115 -21 227 -27 309 -17 87 12 167 34
195 55 20 14 20 15 -3 45 -28 39 -17 39 36 2z m-5653 -38 l-26 -38 46 -42 c26
-24 77 -57 113 -75 64 -32 72 -33 189 -33 66 0 119 -3 117 -7 -9 -14 -108 -38
-159 -38 -101 0 -236 58 -326 139 l-44 41 48 45 c59 55 77 58 42 8z m4863 -8
l47 -44 -35 -35 c-78 -78 -232 -146 -329 -146 -48 0 -148 23 -162 37 -4 4 47
8 115 8 121 0 123 0 197 37 40 20 92 55 113 77 l39 40 -27 36 c-38 49 -14 44
42 -10z m-5833 26 c-25 -23 -148 -96 -222 -132 -199 -95 -334 -129 -553 -137
l-165 -7 49 -23 c27 -13 90 -33 140 -45 133 -30 439 -30 656 2 210 30 457 83
675 143 226 63 234 64 155 33 -77 -30 -324 -104 -465 -139 -262 -65 -555 -106
-767 -106 -103 -1 -111 -2 -93 -16 32 -24 140 -53 243 -66 227 -28 604 37
1007 172 65 22 120 38 122 36 2 -2 -56 -26 -129 -54 -205 -77 -401 -134 -593
-172 l-90 -17 45 -14 c31 -9 96 -14 205 -14 139 1 174 4 265 27 121 31 238 72
360 129 107 49 76 24 -50 -40 -118 -61 -271 -115 -404 -142 -132 -27 -314 -22
-421 11 -56 18 -106 24 -250 30 -148 6 -192 11 -245 29 -69 24 -145 68 -175
101 -10 11 -30 20 -44 20 -47 0 -215 65 -274 105 -80 55 -74 51 -152 81 -73
28 -179 83 -172 90 2 2 26 -5 52 -17 178 -79 455 -109 681 -75 176 27 363 89
529 174 84 43 95 48 80 33z m6875 -48 c221 -107 429 -162 647 -171 207 -7 392
24 549 93 33 14 55 22 49 16 -20 -19 -161 -89 -214 -106 -30 -10 -75 -34 -100
-53 -62 -47 -154 -88 -252 -112 -59 -14 -90 -27 -117 -51 -86 -76 -211 -109
-414 -109 -122 0 -146 -3 -215 -26 -105 -36 -286 -44 -418 -20 -121 23 -279
76 -400 136 -105 51 -167 90 -113 70 15 -5 46 -19 69 -30 72 -37 212 -87 325
-116 97 -26 126 -29 269 -29 109 0 174 5 205 14 l45 14 -112 23 c-151 31 -270
64 -443 123 -121 41 -282 106 -215 86 11 -4 85 -27 165 -51 335 -105 572 -148
805 -148 175 0 258 15 343 58 l47 25 -120 1 c-339 1 -843 102 -1230 244 -89
33 -69 29 135 -27 693 -191 1221 -227 1493 -102 l52 23 -138 1 c-158 1 -282
22 -424 72 -105 37 -280 125 -349 175 -57 42 -59 43 76 -23z m-5905 -173 c-29
-56 -22 -68 63 -108 74 -36 81 -37 187 -37 106 0 118 3 210 41 45 18 -8 -26
-63 -53 -79 -39 -202 -44 -304 -13 -91 28 -168 66 -168 84 0 14 75 116 85 116
3 0 -1 -13 -10 -30z m4876 -44 c16 -21 26 -43 23 -47 -10 -17 -123 -69 -181
-84 -75 -20 -190 -19 -249 1 -43 15 -128 63 -122 70 2 1 35 -8 73 -22 120 -41
270 -28 375 33 25 14 46 27 48 28 2 2 -4 20 -12 40 -9 21 -16 40 -16 42 0 11
34 -23 61 -61z m-46 -210 c8 -20 15 -39 15 -44 0 -19 -125 -45 -215 -45 -101
1 -152 15 -220 64 -64 46 -64 64 -1 29 64 -36 184 -64 240 -55 23 4 65 13 95
21 l54 15 -7 47 c-6 44 -5 46 9 25 9 -13 22 -38 30 -57z m-4801 25 l-6 -40 53
-15 c30 -8 72 -17 95 -21 55 -8 174 18 240 54 60 32 70 27 23 -14 -79 -66
-192 -94 -306 -76 -81 13 -140 29 -147 40 -5 8 40 111 49 111 3 0 2 -18 -1
-39z m3556 29 c0 -7 -393 -10 -1160 -10 -767 0 -1160 3 -1160 10 0 7 393 10
1160 10 767 0 1160 -3 1160 -10z m-2102 -342 l-1 -283 -9 170 c-4 94 -11 212
-14 263 l-6 92 -53 0 c-59 0 -65 -6 -66 -68 0 -20 -4 -46 -9 -57 -6 -13 -9 9
-9 66 -1 47 2 89 6 92 3 4 42 7 85 7 l78 0 -2 -282z m328 -198 c1 -527 -10
-473 -22 103 l-6 337 -53 0 -53 0 -6 -187 c-19 -533 -23 -560 -24 -155 l-2
383 83 -3 82 -3 1 -475z m338 464 c3 -9 6 -83 6 -165 0 -126 -2 -149 -15 -149
-13 0 -15 23 -15 145 l0 145 -55 0 -55 0 0 -84 c0 -106 -10 -206 -21 -206 -5
0 -9 74 -9 165 l0 165 79 0 c63 0 80 -3 85 -16z m346 -165 c0 -117 -3 -178
-10 -174 -6 3 -10 51 -10 108 0 56 -3 126 -6 155 l-7 52 -47 0 -48 0 -7 -140
c-4 -77 -11 -140 -16 -140 -5 0 -9 72 -9 160 l0 160 80 0 80 0 0 -181z m354
165 c3 -9 6 -81 6 -160 0 -120 -2 -144 -15 -144 -12 0 -15 24 -17 138 l-3 137
-52 3 -53 3 0 -84 c0 -107 -10 -207 -21 -207 -5 0 -9 74 -9 165 l0 165 79 0
c63 0 80 -3 85 -16z m334 -336 l-1 -353 -11 330 -11 330 -51 3 -52 3 -6 -153
c-4 -84 -10 -295 -15 -468 l-8 -315 -1 488 -2 487 80 0 80 0 -2 -352z m330
265 l-1 -88 -10 68 -10 67 -57 0 -57 0 -8 -207 c-12 -340 -22 -361 -24 -47 0
154 2 284 6 287 3 4 42 7 85 7 l78 0 -2 -87z m-3544 -11 c-5 -4 -31 -22 -58
-40 -107 -76 -265 -127 -428 -139 l-88 -6 0 27 c0 28 32 100 50 111 13 8 13 4
-5 -38 -8 -20 -15 -39 -15 -42 0 -11 169 -4 230 10 83 20 178 56 255 98 33 18
62 31 65 30 2 -2 0 -7 -6 -11z m566 8 c0 -23 -93 -109 -140 -129 -59 -25 -177
-43 -231 -35 -36 6 -39 9 -39 38 1 17 7 45 15 61 l13 30 1 -43 1 -44 93 4 c80
3 101 7 157 35 36 18 78 46 94 62 33 34 36 36 36 21z m3046 -87 c-29 -385
-206 -763 -482 -1023 -174 -164 -350 -270 -580 -350 l-91 -32 -74 22 c-88 26
-276 114 -368 171 -281 178 -515 469 -631 787 -44 120 -79 280 -84 382 -3 47
-3 72 0 55 29 -193 73 -343 145 -495 184 -386 505 -673 909 -811 l95 -32 90
28 c198 63 422 198 585 351 264 249 443 615 476 972 10 108 18 87 10 -25z
m844 -1 c45 -22 72 -28 147 -30 l91 -4 7 31 c3 17 4 35 0 41 -3 5 -4 10 0 10
7 0 21 -37 29 -81 l6 -36 -45 -6 c-65 -9 -177 9 -240 39 -50 23 -135 103 -135
126 0 5 19 -7 42 -27 23 -19 67 -48 98 -63z m660 -13 c76 -26 116 -33 203 -37
117 -5 121 -3 92 52 -19 36 -19 42 1 25 24 -20 44 -65 44 -99 0 -29 -1 -30
-49 -30 -168 0 -439 94 -516 180 -14 16 1 11 55 -19 41 -22 118 -54 170 -72z
m-5061 -95 c-43 -44 -150 -116 -215 -144 -66 -29 -197 -66 -261 -75 l-53 -7 0
36 c0 20 9 55 21 77 22 45 36 48 19 5 -5 -15 -10 -36 -10 -48 0 -19 4 -20 63
-13 124 14 283 79 412 169 63 44 67 44 24 0z m4821 -14 c124 -83 275 -143 393
-155 l68 -7 -7 28 c-4 16 -11 39 -15 52 -12 31 7 19 25 -16 19 -38 26 -85 16
-102 -7 -11 -22 -11 -96 4 -161 31 -323 108 -416 197 -58 55 -52 55 32 -1z
m-4746 -122 c-74 -110 -217 -224 -360 -288 -74 -34 -99 -37 -108 -14 -10 26
-6 77 9 109 l13 30 1 -53 c1 -52 1 -52 29 -46 112 27 237 106 352 223 47 47
87 85 89 84 2 -2 -9 -22 -25 -45z m4825 -157 c70 -48 168 -95 220 -106 l34 -7
-6 53 c-6 50 -5 52 8 29 15 -25 20 -96 9 -123 -5 -13 -11 -14 -43 -2 -167 58
-364 208 -430 325 -22 39 -15 35 60 -42 46 -46 113 -104 148 -127z m-2807 14
l3 -160 28 -3 c15 -2 27 -9 27 -18 0 -11 -21 -14 -106 -14 -80 0 -105 3 -102
13 3 6 13 14 24 16 39 7 44 20 44 128 0 117 -9 143 -46 143 -14 0 -24 5 -22
11 4 13 130 57 140 49 4 -3 9 -77 10 -165z m360 134 c61 -44 87 -154 54 -232
-40 -97 -177 -134 -268 -74 -104 69 -100 250 6 313 63 37 150 34 208 -7z m416
23 c2 -6 -6 -13 -16 -16 -18 -6 -20 -19 -24 -174 -7 -224 -28 -272 -123 -272
-49 0 -68 15 -54 42 11 21 31 23 59 6 17 -11 22 -10 30 2 5 8 10 97 10 198 l0
182 -25 12 c-14 6 -25 16 -25 22 0 14 163 12 168 -2z m-2678 -133 c-49 -124
-164 -257 -302 -349 -49 -33 -93 -58 -98 -55 -15 9 -30 99 -22 130 8 28 9 27
16 -22 4 -29 9 -53 12 -53 4 0 33 14 66 32 104 55 265 223 322 336 25 49 28
38 6 -19z m4530 -162 c59 -65 145 -134 209 -166 51 -27 60 -20 62 44 0 32 2
36 9 20 13 -31 11 -72 -5 -111 l-15 -36 -37 23 c-143 84 -272 214 -337 339
-51 97 -44 107 13 20 27 -41 73 -101 101 -133z m-199 -82 c25 -79 102 -180
179 -236 33 -24 66 -44 72 -44 6 0 17 16 25 35 l13 35 -4 -53 c-5 -74 -16 -82
-74 -52 -66 35 -163 134 -194 200 -29 64 -49 145 -47 198 2 33 2 34 6 7 2 -16
13 -57 24 -90z m-4256 -32 c-25 -84 -51 -130 -110 -193 -61 -63 -158 -121
-175 -104 -6 6 -13 35 -15 65 l-5 54 16 -37 c9 -21 20 -38 24 -38 4 0 35 20
68 45 100 73 181 191 200 290 l7 40 3 -33 c2 -18 -4 -58 -13 -89z m173 -120
c-4 -95 -8 -116 -36 -174 -32 -68 -105 -150 -160 -182 l-31 -18 -15 29 c-8 15
-17 46 -21 67 l-6 40 21 -37 c11 -21 26 -38 33 -38 18 0 121 114 150 168 32
59 57 151 57 209 0 24 3 43 6 43 4 0 5 -48 2 -107z m670 -64 l47 -96 55 -11
c31 -7 77 -25 103 -42 l47 -30 0 35 c0 43 10 44 76 6 65 -38 152 -132 187
-203 36 -76 34 -86 -5 -18 -58 101 -199 223 -226 195 -8 -8 23 -144 46 -195
16 -37 29 -51 72 -73 29 -15 55 -26 57 -24 2 2 -14 40 -36 83 -22 43 -39 80
-37 81 5 5 69 -102 92 -153 23 -52 20 -70 -6 -39 -19 22 -157 72 -236 84 -47
7 -89 7 -130 1 -32 -6 -60 -10 -61 -10 -11 0 2 -25 28 -55 40 -45 103 -82 199
-117 84 -30 83 -35 -4 -13 -87 23 -189 80 -241 136 -25 26 -45 53 -45 59 0 14
34 26 103 34 l58 8 -43 47 c-74 82 -131 211 -94 211 9 0 16 3 16 6 0 12 -89
194 -110 227 l-22 32 32 -35 c17 -19 52 -78 78 -131z m3287 -68 c35 -65 58
-94 128 -160 l36 -34 21 44 c13 29 20 37 20 23 0 -25 -19 -84 -33 -101 -13
-18 -56 9 -117 73 -84 88 -120 185 -119 314 l1 75 14 -84 c10 -56 26 -105 49
-150z m-3732 -66 c0 -69 -5 -103 -21 -145 -25 -65 -106 -172 -124 -165 -16 7
-54 62 -63 94 -6 21 -4 20 23 -10 30 -33 30 -34 51 -15 31 28 88 147 101 213
11 53 9 143 -5 203 -3 14 4 0 16 -30 16 -41 21 -78 22 -145z m3476 120 c-17
-95 6 -201 67 -305 49 -85 57 -89 88 -43 30 44 34 29 7 -26 -34 -65 -43 -67
-89 -17 -22 24 -53 68 -69 98 -26 49 -28 62 -28 163 0 62 6 129 13 154 18 59
24 47 11 -24z m-508 -75 c5 0 16 -11 24 -24 14 -21 14 -28 2 -58 -14 -34 -14
-35 10 -30 16 3 32 -3 49 -18 30 -29 30 -45 -1 -72 -13 -11 -29 -36 -36 -55
-7 -23 -22 -39 -49 -53 -21 -11 -47 -32 -58 -47 -17 -23 -28 -28 -73 -30 -36
-1 -48 1 -39 7 8 6 27 10 42 10 19 0 35 10 53 34 14 19 39 39 55 46 16 7 32
20 35 30 3 10 19 35 35 55 34 43 36 53 15 61 -23 9 -65 -5 -65 -21 0 -8 -9
-20 -21 -27 -11 -7 -29 -29 -40 -50 -13 -26 -27 -38 -49 -43 -17 -4 -43 -18
-57 -31 -14 -13 -33 -24 -42 -24 -11 0 -9 4 7 16 13 9 34 27 47 40 13 13 33
24 44 24 12 0 23 10 29 29 6 16 22 37 36 46 20 14 26 26 26 54 0 20 5 42 11
48 16 16 7 57 -14 61 -12 3 -31 -11 -54 -38 -31 -36 -40 -41 -72 -38 -34 3
-37 0 -55 -39 -12 -26 -29 -46 -46 -53 -19 -8 -33 -27 -49 -65 -12 -29 -34
-61 -48 -70 l-26 -17 27 34 c32 43 33 58 4 59 -20 1 -18 3 10 15 17 8 32 21
32 29 0 9 16 25 35 36 21 13 38 32 41 48 11 43 24 53 68 49 36 -3 42 0 64 32
24 37 48 52 70 44 8 -2 18 -4 23 -4z m-2733 -120 c23 -47 27 -67 27 -140 -1
-70 -5 -95 -27 -142 -15 -33 -33 -58 -42 -58 -19 0 -73 46 -88 74 -10 20 -10
20 8 5 10 -9 29 -22 41 -28 21 -10 24 -8 44 31 46 90 35 232 -27 329 -13 21
-24 42 -24 46 1 17 62 -65 88 -117z m2506 114 c24 -9 19 -45 -11 -92 -32 -49
-45 -48 -14 1 21 34 29 82 12 75 -5 -1 -25 -23 -45 -47 -35 -42 -37 -47 -32
-100 3 -31 2 -45 -1 -31 -7 35 -22 50 -48 50 -29 0 -47 -22 -48 -62 -2 -26 3
-33 23 -39 23 -6 23 -7 3 -8 -26 -1 -39 -19 -25 -33 8 -8 8 -17 1 -30 -10 -18
-3 -98 8 -98 3 0 14 11 25 25 24 30 56 32 92 4 22 -17 26 -28 26 -70 0 -39 -4
-51 -21 -61 -11 -7 -27 -28 -34 -45 -8 -18 -20 -33 -28 -33 -8 0 -31 -13 -51
-29 -21 -17 -44 -27 -51 -25 -8 3 -24 -1 -37 -10 -25 -18 -74 -21 -83 -6 -4 6
6 10 22 10 16 0 38 7 49 15 10 8 28 15 40 15 11 0 31 11 43 24 13 13 34 27 47
30 15 4 24 14 24 25 0 11 12 29 26 40 29 23 35 61 14 86 -18 22 -53 18 -68 -6
-10 -15 -20 -19 -36 -15 -15 4 -33 -1 -49 -14 -14 -12 -39 -25 -54 -31 -18 -6
-33 -21 -40 -39 -6 -17 -16 -30 -21 -30 -18 0 20 79 40 86 10 3 33 20 51 37
28 27 32 38 34 94 2 54 0 63 -15 63 -9 0 -29 -15 -43 -33 -17 -20 -43 -38 -68
-46 -27 -8 -46 -21 -53 -36 -6 -14 -20 -27 -32 -31 -12 -3 -29 -13 -38 -22
-16 -14 -18 -14 -18 0 0 9 16 25 35 37 19 11 35 27 35 34 0 19 30 44 63 52 15
4 40 23 54 42 23 29 31 34 62 31 34 -3 36 -2 33 27 -1 17 6 44 18 64 18 28 26
32 50 29 23 -3 30 -1 30 12 0 8 13 31 30 50 16 19 29 43 30 53 0 17 16 22 44
11z m535 -41 c-36 -57 -59 -131 -59 -189 0 -46 35 -170 51 -179 5 -4 25 5 44
20 19 14 35 22 35 17 0 -10 -85 -92 -95 -92 -3 0 -20 30 -38 68 -27 57 -31 78
-31 142 0 83 19 137 75 215 43 60 57 58 18 -2z m-2056 -327 c46 -23 100 -61
143 -102 l69 -65 -70 54 c-79 62 -154 102 -208 112 -43 8 -46 -1 -22 -63 14
-34 22 -40 64 -51 27 -7 76 -25 109 -41 62 -29 182 -106 182 -116 0 -3 -15 4
-32 16 -68 45 -216 109 -279 121 -74 13 -159 5 -159 -15 0 -23 95 -103 160
-136 34 -17 95 -40 134 -50 39 -10 60 -19 46 -19 -14 -1 -41 4 -60 10 -19 6
-95 14 -168 18 -152 8 -202 28 -59 23 l92 -3 -52 31 c-29 16 -61 30 -71 30
-24 0 -110 -29 -117 -40 -8 -12 105 -67 176 -84 36 -9 108 -16 160 -17 86 -1
90 -2 49 -11 -64 -13 -204 -3 -282 21 -68 22 -164 78 -162 96 2 8 72 39 137
59 17 5 15 11 -17 47 -19 23 -32 47 -30 53 3 9 -43 28 -143 60 -203 65 -206
66 -158 60 62 -9 185 -41 278 -73 64 -21 96 -27 134 -24 l50 5 -14 32 c-33 74
-39 81 -66 84 -40 5 -60 -15 -55 -55 2 -20 0 -29 -5 -24 -17 17 -10 64 13 83
37 30 142 19 233 -26z m1238 -34 c-5 -10 -28 -35 -51 -56 -27 -24 -39 -43 -36
-54 8 -26 -75 -154 -111 -173 -17 -8 -45 -27 -63 -42 -27 -23 -40 -27 -93 -26
-46 1 -56 3 -37 9 14 4 39 8 57 9 20 1 46 13 72 35 23 19 49 37 59 40 23 8 84
110 76 129 -10 27 -46 28 -89 3 -25 -15 -50 -22 -66 -19 -20 4 -30 -1 -43 -21
-12 -19 -25 -26 -48 -26 -24 0 -42 -12 -86 -57 -30 -32 -51 -49 -47 -38 10 26
7 117 -5 129 -14 14 -59 -10 -70 -36 -5 -15 -9 -17 -9 -7 -2 33 71 78 95 58 9
-7 18 -7 33 0 20 11 51 5 51 -10 0 -5 13 -9 30 -9 21 0 35 8 46 26 23 34 6 53
-32 35 -24 -11 -26 -10 -14 3 16 20 44 20 63 1 28 -28 62 -28 94 -1 22 18 43
26 70 26 42 0 124 46 146 81 15 24 22 16 8 -9z m-784 -342 l67 -31 57 26 c31
14 69 25 85 24 l29 0 -25 -11 c-14 -5 -47 -20 -73 -32 l-48 -22 68 -46 c37
-26 81 -61 97 -77 l30 -31 -25 0 c-16 0 -38 14 -59 35 -19 20 -58 52 -87 72
l-52 36 -38 -29 c-21 -15 -66 -52 -101 -81 -61 -51 -85 -62 -96 -44 -6 9 44
52 144 120 l69 48 -60 28 c-32 16 -59 32 -59 37 0 12 5 11 77 -22z"/>

<path fill="white" d="M7177 2976 c-3 -8 -3 -23 0 -34 2 -11 0 -23 -6 -26 -23 -15 -12 -67
20 -97 27 -25 30 -34 25 -61 -8 -39 13 -73 57 -92 21 -9 26 -15 14 -15 -17 -1
-17 -4 4 -33 l23 -33 -27 24 c-30 27 -57 22 -57 -11 0 -36 15 -54 33 -40 16
14 33 -1 60 -53 l16 -30 1 27 c0 15 -4 37 -9 50 -6 16 -5 32 4 47 10 19 10 33
0 70 -15 56 -47 135 -80 200 -21 42 -22 50 -9 55 9 3 12 2 9 -4 -4 -6 4 -27
16 -46 12 -20 37 -71 55 -113 l34 -76 0 67 c0 55 -4 69 -19 80 -13 10 -19 25
-18 50 1 41 -16 68 -44 68 -10 0 -23 9 -29 20 -13 23 -65 28 -73 6z"/>
<path fill="white" d="M7224 2185 c-13 -20 -14 -31 -5 -56 6 -17 9 -41 6 -53 -3 -11 -2 -69
3 -128 4 -60 4 -104 -1 -101 -5 3 -6 -4 -3 -16 3 -11 9 -30 12 -42 6 -19 8
-18 39 15 18 20 40 36 48 36 9 0 18 13 22 30 4 16 11 32 16 35 15 10 10 104
-7 130 -12 18 -13 28 -5 44 17 31 13 48 -13 55 -13 3 -33 22 -45 41 -24 41
-44 44 -67 10z"/>
<path fill="white" d="M4520 2259 c-30 -42 -62 -117 -81 -192 -9 -38 -8 -48 9 -76 l20 -32
21 73 c12 40 25 81 27 91 3 10 7 17 9 15 2 -2 -6 -51 -19 -109 -18 -90 -20
-112 -10 -140 24 -65 13 -53 -33 36 -55 106 -155 214 -216 234 -21 7 -41 10
-44 7 -4 -3 -5 -27 -4 -53 2 -66 49 -162 113 -230 30 -31 43 -51 30 -44 -37
20 -77 -5 -77 -48 0 -36 1 -37 81 -68 l51 -20 6 76 c5 63 3 80 -11 101 -10 14
-40 57 -67 95 l-49 70 38 -35 c21 -19 62 -67 92 -107 30 -39 63 -74 73 -78 10
-3 41 -30 69 -59 l50 -53 17 61 c30 108 18 142 -46 133 l-37 -5 13 32 c26 61
48 208 41 273 -11 107 -20 115 -66 52z"/>
<path fill="white" d="M5791 2034 c-42 -35 -58 -91 -42 -145 17 -56 54 -89 100 -89 64 0
111 53 111 125 0 108 -97 170 -169 109z"/>
<path fill="white" d="M4650 1370 c0 -25 41 -113 69 -149 40 -50 84 -77 141 -86 l45 -7 -90
93 c-92 96 -89 95 28 -5 37 -32 67 -54 67 -49 -1 4 -9 36 -18 71 -21 73 -42
91 -141 122 -70 22 -101 25 -101 10z"/>
</g>
</svg>
